<svg width="40" height="35" viewBox="0 0 40 35" fill="none" xmlns="http://www.w3.org/2000/svg">
<path d="M32.08 34.32C31.3867 34.56 30.5867 34.7333 29.68 34.84C28.8 34.9467 27.5733 35 26 35H19.4C19.7467 34.92 20.12 34.6267 20.52 34.12C20.92 33.5867 21.12 32.5733 21.12 31.08V11.28C21.12 9.89333 20.9333 8.94667 20.56 8.44C20.1867 7.90667 19.8133 7.58667 19.44 7.48H26C27.7067 7.48 29 7.56 29.88 7.72C30.7867 7.85333 31.5733 8.06667 32.24 8.36C33.4133 8.92 34.32 9.70666 34.96 10.72C35.6 11.7333 35.92 12.8267 35.92 14C35.92 15.7867 35.3733 17.3333 34.28 18.64C33.2133 19.92 31.8 20.7467 30.04 21.12C31.24 21.2533 32.3733 21.6 33.44 22.16C34.5333 22.72 35.4133 23.48 36.08 24.44C36.7733 25.4 37.12 26.4933 37.12 27.72C37.12 29.4267 36.6667 30.8267 35.76 31.92C34.8533 32.9867 33.6267 33.7867 32.08 34.32ZM30.96 10.28C30.4267 9.88 29.8533 9.58667 29.24 9.4C28.6267 9.18667 27.8 9.08 26.76 9.08H24V20.44H27.24C28.2 20.44 29 20.2933 29.64 20C30.28 19.7067 30.84 19.32 31.32 18.84C31.8267 18.3333 32.2267 17.72 32.52 17C32.8133 16.28 32.96 15.5467 32.96 14.8C32.96 13.8933 32.7867 13.04 32.44 12.24C32.12 11.44 31.6267 10.7867 30.96 10.28ZM31.8 23.2C31.2933 22.8 30.6667 22.5067 29.92 22.32C29.1733 22.1333 28.16 22.04 26.88 22.04H24V33.4H27.8C29.72 33.4 31.2133 32.9467 32.28 32.04C33.3733 31.1333 33.92 29.6933 33.92 27.72C33.92 25.88 33.2133 24.3733 31.8 23.2Z" fill="white"/>
<path d="M6.92 34.32C7.61333 34.56 8.41333 34.7333 9.32 34.84C10.2 34.9467 11.4267 35 13 35H19.6C19.2533 34.92 18.88 34.6267 18.48 34.12C18.08 33.5867 17.88 32.5733 17.88 31.08V11.28C17.88 9.89333 18.0667 8.94667 18.44 8.44C18.8133 7.90667 19.1867 7.58667 19.56 7.48H13C11.2933 7.48 10 7.56 9.12 7.72C8.21333 7.85333 7.42667 8.06667 6.76 8.36C5.58667 8.92 4.68 9.70666 4.04 10.72C3.4 11.7333 3.08 12.8267 3.08 14C3.08 15.7867 3.62667 17.3333 4.72 18.64C5.78667 19.92 7.2 20.7467 8.96 21.12C7.76 21.2533 6.62667 21.6 5.56 22.16C4.46667 22.72 3.58667 23.48 2.92 24.44C2.22667 25.4 1.88 26.4933 1.88 27.72C1.88 29.4267 2.33333 30.8267 3.24 31.92C4.14667 32.9867 5.37333 33.7867 6.92 34.32ZM8.04 10.28C8.57333 9.88 9.14667 9.58667 9.76 9.4C10.3733 9.18667 11.2 9.08 12.24 9.08H15V20.44H11.76C10.8 20.44 10 20.2933 9.36 20C8.72 19.7067 8.16 19.32 7.68 18.84C7.17333 18.3333 6.77333 17.72 6.48 17C6.18667 16.28 6.04 15.5467 6.04 14.8C6.04 13.8933 6.21333 13.04 6.56 12.24C6.88 11.44 7.37333 10.7867 8.04 10.28ZM7.2 23.2C7.70667 22.8 8.33333 22.5067 9.08 22.32C9.82667 22.1333 10.84 22.04 12.12 22.04H15V33.4H11.2C9.28 33.4 7.78667 32.9467 6.72 32.04C5.62667 31.1333 5.08 29.6933 5.08 27.72C5.08 25.88 5.78667 24.3733 7.2 23.2Z" fill="white"/>
</svg>
